<?xml version="1.0" encoding="UTF-8"?>
<svg width="210mm" height="297mm" version="1.1" viewBox="0 0 744.09448819 1052.3622047" xmlns="http://www.w3.org/2000/svg">
 <ellipse cx="375" cy="474.86" rx="290.71" ry="271.07" fill="#fff"/>
 <ellipse cx="375" cy="470.93" rx="285" ry="264.29" fill="#fff"/>
 <ellipse transform="matrix(-.99876 -.049826 -.062504 .99804 0 0)" cx="-327.1" cy="459.46" rx="66.272" ry="61.967" fill="#f7f7f7"/>
 <ellipse transform="matrix(.99871 -.050737 .061383 .99811 0 0)" cx="279.02" cy="490.61" rx="50.082" ry="47.682" fill="#69b628"/>
 <ellipse transform="matrix(.99874 -.050096 .062168 .99807 0 0)" cx="284.73" cy="492.87" rx="38.501" ry="36.194" fill="#4d4d4d"/>
 <ellipse transform="matrix(.9986 -.052883 .058895 .99826 0 0)" cx="306.73" cy="497.68" rx="9.6355" ry="10.093" fill="#f9f9f9"/>
 <path d="m527.17 287.05c-2.5713 0.0586-4.9952 1.1024-7.082 3.291-1.7589 1.845-5.0213 7.0828-7.248 11.637-7.2037 14.732-30.283 42.178-41.867 49.793-4.9573 3.2588-9.9709 4.5979-25.688 6.8457-10.741 1.5364-23.498 4.2-28.344 5.9199-11.982 4.2522-31.332 16.47-41.533 26.225-1.9425 1.8572-3.9072 3.4941-5.6992 4.8594 0.25805 2.2497 0.51232 4.5004 0.79102 6.748 0.87365 7.0459 1.8178 14.083 2.7324 21.125 2.5639-2.8486 10.232-10.493 17.426-17.357 16-15.268 30.214-22.734 49.246-25.869 13.65-2.2485 18.914-1.9144 35.34 2.2422 31.331 7.9284 54.458 26.728 70.844 57.594 8.8794 16.726 11.896 30.013 11.949 52.629 0.0576 24.265-3.265 37.968-14.451 59.633-6.2418 12.088-9.5093 16.257-22.33 28.439-15.889 15.098-25.596 20.718-45.049 26.092-13.142 3.6303-31.745 3.3132-45.178-0.77343-5.9186-1.8009-10.942-3.0591-11.164-2.7969-2.1654 2.5571-11.935 18.037-11.566 18.328 1.3832 1.0921 17.457 5.3251 26.152 6.8867 14.22 2.554 37.495 0.90657 52.957-3.748 14.154-4.2612 30.275-12.729 42.09-22.109 17.029-13.521 35.87-42.981 43.625-68.207 2.7-8.7825 3.6009-16.472 4.2031-35.83 0.85954-27.631-0.86375-39.207-9.2656-62.223-4.1813-11.454-4.9032-15.973-6.0352-37.617-1.343-25.681-6.3654-65.415-10.359-81.969-4.2562-17.642-15.313-29.997-24.496-29.787zm1.1992 60.23c0.24048-0.0142 0.42981 0.0398 0.5664 0.16797 2.1517 2.0233 4.5386 29.807 2.8125 32.732-1.7902 3.0342-1.7953 3.0285-12.297-3.959-6.4279-4.2768-9.271-7.1442-9.2285-9.3164 0.0802-4.1417 14.539-19.424 18.146-19.625zm-280.93 12.777c0.0121 0.56618 0.0161 1.1311 0.0273 1.6973 0.14681-0.44799 0.2943-0.89597 0.4414-1.3438-0.0127-0.1182-0.0144-0.23553-0.0234-0.35352h-0.44532zm-93.791 125.11c-6e-3 0.24862-0.0116 0.4972-0.0176 0.74414 0.038-0.18864 0.0761-0.37813 0.0977-0.57226-0.0273-0.057-0.0554-0.11367-0.0801-0.17188z" fill="#0083d7"/>
 <path d="m218.96 287.13c-9.1831-0.20975-20.242 12.145-24.498 29.787-3.994 16.554-9.0164 56.288-10.359 81.969-1.132 21.644-1.8538 26.163-6.0352 37.617-8.4019 23.016-10.125 34.591-9.2656 62.223 0.60222 19.359 1.5032 27.048 4.2031 35.83 7.7548 25.226 26.596 54.686 43.625 68.207 11.815 9.3804 27.936 17.848 42.09 22.109 15.462 4.6546 38.737 6.3021 52.957 3.748 8.6954-1.5618 24.769-5.7946 26.152-6.8867 0.36851-0.29114-9.401-15.771-11.566-18.328-0.22198-0.26244-5.2455 0.99619-11.164 2.7969-13.433 4.0866-32.036 4.4035-45.178 0.77343-19.453-5.374-29.158-10.992-45.047-26.09-12.821-12.183-16.09-16.351-22.332-28.439-11.186-21.665-14.507-35.369-14.449-59.635 0.0534-22.616 3.0679-35.903 11.947-52.629 16.386-30.866 39.513-49.665 70.844-57.594 16.426-4.1566 21.69-4.4905 35.34-2.2422 19.032 3.1351 33.246 10.602 49.246 25.869 7.194 6.8648 14.862 14.509 17.426 17.357 0.9146-7.0416 1.8607-14.079 2.7344-21.125 0.2787-2.2474 0.53102-4.4986 0.78906-6.748-1.792-1.3655-3.7567-3.0019-5.6992-4.8594-10.202-9.7544-29.552-21.972-41.533-26.225-4.8462-1.7199-17.601-4.3837-28.342-5.9199-15.717-2.2481-20.732-3.5869-25.689-6.8457-11.584-7.6149-34.664-35.061-41.867-49.793-2.2268-4.5537-5.4891-9.7917-7.248-11.637-2.0869-2.1889-4.5088-3.2326-7.0801-3.291zm-1.2012 60.23c3.6076 0.20141 18.066 15.483 18.146 19.625 0.0425 2.1722-2.8006 5.0398-9.2285 9.3164-10.502 6.9877-10.507 6.9932-12.297 3.959-1.7261-2.9257 0.66078-30.709 2.8125-32.732 0.13659-0.12817 0.32593-0.18221 0.5664-0.16797zm280.49 12.777c-9e-3 0.118-0.0107 0.23531-0.0234 0.35352 0.1471 0.44778 0.29459 0.89597 0.4414 1.3438 0.0112-0.56619 0.0152-1.1311 0.0274-1.6973h-0.44532zm94.42 132.96c1e-3 0.0173 2e-3 0.0333 4e-3 0.0508-3.6e-4 -0.0176-2e-3 -0.0332-2e-3 -0.0508-6.5e-4 6e-5 -1e-3 -6e-5 -2e-3 0z" fill="#0083d7"/>
 <path d="m372.73 626.7c-1.4091-1.2586-7.8028-6.2629-11.057-9.5438-7.923-7.9878-19.144-17.042-24.941-26.925-3.1404-5.354-3.671-7.6171-3.3446-10.559 0.31155-2.8086 1.1874-6.2164 2.8265-9.0118 1.5924-2.7157 2.8603-5.1499 6.2419-7.8184 3.1001-2.4464 8.3539-6.3998 17.2-8.3041 6.3707-1.3715 16.73-2.5142 19.916-1.7062l6.6777 1.176 4.8606 1.4526c5.2811 1.5783 10.172 5.9182 12.667 8.0317 4.3427 3.6792 4.9203 5.7044 6.5392 9.0246 2.1934 4.4985 1.2441 8.4441-1.335 14.673-3.6957 8.9256-17.702 22.154-25.65 30.423-2.6417 2.7482-7.9706 7.5749-7.9706 7.5749l-2.0005 1.6847z" fill="#ffa900"/>
 <ellipse transform="matrix(-.99876 -.049826 -.062504 .99804 0 0)" cx="-476.32" cy="451.7" rx="66.272" ry="61.967" fill="#f7f7f7"/>
 <ellipse transform="matrix(.99875 -.050026 .062254 .99806 0 0)" cx="406.61" cy="496.88" rx="50.794" ry="47.684" fill="#69b628"/>
 <ellipse transform="matrix(.9987 -.050973 .0611 .99813 0 0)" cx="407.1" cy="511.34" rx="13.563" ry="13.695" fill="#f9f9f9"/>
 <ellipse transform="matrix(.99875 -.049936 .062366 .99805 0 0)" cx="391.88" cy="505.18" rx="7.3142" ry="7.2359" fill="#f9f9f9"/>
 <ellipse transform="matrix(-.99875 -.049936 -.062366 .99805 0 0)" cx="-452.04" cy="463.91" rx="7.3142" ry="7.2359" fill="#f9f9f9"/>
 <ellipse transform="matrix(.99877 -.049637 .062742 .99803 0 0)" cx="399.75" cy="498.54" rx="38.857" ry="36.195" fill="#4d4d4d"/>
 <ellipse transform="matrix(.9986 -.052883 .058895 .99826 0 0)" cx="379.9" cy="501.9" rx="9.6355" ry="10.093" fill="#f9f9f9"/>
</svg>
