<svg version="1.2" xmlns="http://www.w3.org/2000/svg" viewBox="0 0 584 545" width="584" height="545"><style>.a{fill:#fff}.b{fill:#f7f7f7}.c{fill:#69b628}.d{fill:#4d4d4d}.e{fill:#f9f9f9}.f{fill:#0083d7}.g{fill:#ffa900}</style><path class="a" d="m292 543.9c-160.8 0-290.7-121.1-290.7-271 0-149.9 129.9-271.1 290.7-271.1 160.8 0 290.7 121.2 290.7 271.1 0 149.9-129.9 271-290.7 271z"/><path class="a" d="m292 533.2c-157.6 0-285-118.1-285-264.3 0-146.1 127.4-264.3 285-264.3 157.6 0 285 118.2 285 264.3 0 146.2-127.4 264.3-285 264.3z"/><path class="b" d="m211.1 334.7c36.6 1.8 67.9-24.3 70.1-58.5 2.1-34.2-25.7-63.4-62.4-65.2-36.6-1.8-67.9 24.4-70 58.6-2.2 34.2 25.7 63.3 62.3 65.1z"/><path class="c" d="m228.7 321.1c-27.7 1.4-51.3-18.7-52.9-45-1.7-26.4 19.4-48.8 47-50.2 27.7-1.4 51.4 18.8 53 45.1 1.6 26.3-19.4 48.7-47.1 50.1z"/><path class="d" d="m234.3 311.8c-21.3 1-39.5-14.2-40.7-34.2-1.3-20 14.9-37 36.2-38.1 21.2-1 39.4 14.2 40.7 34.2 1.2 20-15 37-36.2 38.1z"/><path class="e" d="m253.2 288.7c-5.3 0.3-9.9-4-10.2-9.6-0.3-5.6 3.7-10.3 9-10.6 5.3-0.3 9.9 4 10.2 9.6 0.4 5.6-3.7 10.3-9 10.6z"/><path fill-rule="evenodd" class="f" d="m468.7 114.8c4 16.6 9 56.3 10.3 82 1.2 21.7 1.9 26.2 6.1 37.6 8.4 23 10.1 34.6 9.2 62.2-0.6 19.4-1.5 27.1-4.2 35.9-7.7 25.2-26.6 54.7-43.6 68.2-11.8 9.4-27.9 17.8-42.1 22.1-15.5 4.6-38.7 6.3-52.9 3.7-8.7-1.5-24.8-5.8-26.2-6.8-0.4-0.3 9.4-15.8 11.6-18.4 0.2-0.2 5.2 1 11.1 2.8 13.5 4.1 32.1 4.4 45.2 0.8 19.5-5.4 29.2-11 45.1-26.1 12.8-12.2 16-16.3 22.3-28.4 11.2-21.7 14.5-35.4 14.4-59.7 0-22.6-3-35.9-11.9-52.6-16.4-30.9-39.5-49.7-70.9-57.6-16.4-4.1-21.6-4.5-35.3-2.2-19 3.1-33.2 10.6-49.2 25.8-7.2 6.9-14.9 14.5-17.5 17.4-0.9-7-1.8-14.1-2.7-21.1q-0.4-3.4-0.8-6.8c1.8-1.3 3.8-3 5.7-4.8 10.2-9.8 29.6-22 41.5-26.3 4.9-1.7 17.6-4.3 28.4-5.9 15.7-2.2 20.7-3.6 25.7-6.8 11.6-7.6 34.6-35.1 41.8-49.8 2.3-4.6 5.5-9.8 7.3-11.7 2.1-2.1 4.5-3.2 7.1-3.2 9.2-0.3 20.2 12.1 24.5 29.7zm-41.5 50.1c0 2.2 2.8 5 9.3 9.3 10.5 7 10.5 7 12.2 4 1.8-2.9-0.6-30.7-2.8-32.8q-0.2-0.1-0.5-0.1c-3.6 0.2-18.1 15.5-18.2 19.6zm-262.3-6.8q0 0.1 0 0.3-0.2 0.7-0.4 1.4 0-0.9-0.1-1.7c0 0 0.5 0 0.5 0zm-94.2 125.2q0 0.3-0.1 0.6 0-0.4 0-0.7 0.1 0.1 0.1 0.1z"/><path fill-rule="evenodd" class="f" d="m143 88.4c1.8 1.9 5.1 7.1 7.3 11.7 7.2 14.7 30.3 42.1 41.9 49.7 4.9 3.3 9.9 4.6 25.6 6.9 10.8 1.5 23.5 4.2 28.4 5.9 12 4.3 31.3 16.5 41.5 26.2 2 1.9 3.9 3.5 5.7 4.9q-0.4 3.4-0.8 6.7c-0.8 7.1-1.8 14.1-2.7 21.2-2.6-2.9-10.2-10.5-17.4-17.4-16-15.3-30.2-22.7-49.3-25.9-13.6-2.2-18.9-1.9-35.3 2.3-31.3 7.9-54.5 26.7-70.9 57.6-8.8 16.7-11.9 30-11.9 52.6-0.1 24.3 3.3 38 14.4 59.6 6.3 12.1 9.6 16.3 22.4 28.5 15.9 15.1 25.6 20.7 45 26.1 13.2 3.6 31.8 3.3 45.2-0.8 5.9-1.8 10.9-3.1 11.2-2.8 2.1 2.6 11.9 18 11.5 18.3-1.4 1.1-17.4 5.4-26.1 6.9-14.2 2.6-37.5 0.9-53-3.7-14.1-4.3-30.3-12.8-42.1-22.1-17-13.6-35.8-43-43.6-68.2-2.7-8.8-3.6-16.5-4.2-35.9-0.9-27.6 0.9-39.2 9.3-62.2 4.1-11.5 4.9-16 6-37.6 1.3-25.7 6.4-65.4 10.4-82 4.2-17.6 15.3-30 24.5-29.8 2.5 0.1 5 1.1 7 3.3zm-8.8 57.1c-2.2 2.1-4.5 29.8-2.8 32.8 1.8 3 1.8 3 12.3-4 6.4-4.3 9.2-7.1 9.2-9.3-0.1-4.2-14.5-19.4-18.1-19.6q-0.4-0.1-0.6 0.1zm281.5 12.6q0 0.9 0 1.7-0.3-0.6-0.5-1.3 0-0.2 0-0.4c0 0 0.5 0 0.5 0zm94 133q0 0 0 0 0 0 0 0 0 0 0 0z"/><path class="g" d="m289.7 424.7c-1.4-1.3-7.8-6.3-11-9.5-7.9-8-19.2-17.1-25-27-3.1-5.3-3.6-7.6-3.3-10.5 0.3-2.8 1.2-6.2 2.8-9 1.6-2.8 2.9-5.2 6.3-7.9 3.1-2.4 8.3-6.4 17.2-8.3 6.3-1.3 16.7-2.5 19.9-1.7l6.6 1.2 4.9 1.5c5.3 1.5 10.2 5.9 12.7 8 4.3 3.7 4.9 5.7 6.5 9 2.2 4.5 1.3 8.5-1.3 14.7-3.7 8.9-17.7 22.1-25.7 30.4-2.6 2.8-7.9 7.6-7.9 7.6l-2 1.7z"/><path class="b" d="m360.6 334.4c36.6 1.8 67.9-24.3 70.1-58.6 2.1-34.2-25.7-63.3-62.3-65.1-36.6-1.8-68 24.3-70.1 58.5-2.1 34.2 25.7 63.4 62.3 65.2z"/><path class="c" d="m357 321.2c-28.1 1.4-52.1-18.8-53.7-45.1-1.6-26.3 19.7-48.7 47.8-50.1 28-1.4 52 18.7 53.7 45 1.6 26.4-19.7 48.8-47.8 50.2z"/><path class="e" d="m355.7 301.3c-7.5 0.4-14-5.4-14.4-13-0.5-7.5 5.2-14 12.7-14.3 7.5-0.4 13.9 5.4 14.4 12.9 0.4 7.6-5.3 14-12.7 14.4z"/><path class="e" d="m340.3 289.8c-4 0.2-7.5-2.8-7.7-6.8-0.3-4 2.8-7.4 6.8-7.6 4.1-0.2 7.6 2.9 7.8 6.9 0.3 4-2.8 7.3-6.9 7.5z"/><path class="e" d="m339.1 290.8c4 0.2 7.5-2.9 7.7-6.9 0.3-3.9-2.8-7.3-6.8-7.5-4-0.2-7.5 2.8-7.8 6.8-0.2 4 2.9 7.4 6.9 7.6z"/><path class="d" d="m349.8 311.8c-21.5 1.1-39.8-14.2-41.1-34.2-1.2-19.9 15.1-36.9 36.6-38 21.4-1.1 39.8 14.2 41 34.2 1.3 20-15 37-36.5 38z"/><path class="e" d="m326.5 289c-5.3 0.3-9.9-4-10.2-9.6-0.3-5.5 3.7-10.3 9-10.5 5.4-0.3 9.9 4 10.2 9.5 0.4 5.6-3.7 10.3-9 10.6z"/></svg>