<?xml version="1.0" standalone="no"?>
<!DOCTYPE svg PUBLIC "-//W3C//DTD SVG 20010904//EN"
 "http://www.w3.org/TR/2001/REC-SVG-20010904/DTD/svg10.dtd">
<svg version="1.0" xmlns="http://www.w3.org/2000/svg"
 width="1920.000000pt" height="1920.000000pt" viewBox="0 0 1920.000000 1920.000000"
 preserveAspectRatio="xMidYMid meet">
<metadata>
Created by potrace 1.14, written by Peter Selinger 2001-2017
</metadata>
<g transform="translate(0.000000,1920.000000) scale(0.100000,-0.100000)"
fill="#000000" stroke="none">
<path d="M9198 18545 c-1 -1 -64 -6 -138 -9 -74 -4 -155 -9 -180 -11 -25 -2
-81 -7 -125 -10 -44 -3 -98 -8 -120 -10 -69 -8 -159 -17 -195 -20 -97 -7 -420
-54 -625 -89 -11 -2 -38 -7 -60 -11 -84 -14 -404 -81 -487 -101 -10 -2 -26 -6
-35 -8 -10 -2 -45 -11 -78 -19 -33 -9 -71 -18 -85 -21 -14 -3 -65 -16 -115
-30 -49 -14 -117 -32 -150 -41 -246 -67 -928 -301 -1033 -354 -9 -5 -28 -13
-42 -19 -716 -292 -1414 -682 -2047 -1144 -94 -69 -177 -131 -185 -137 -7 -6
-76 -61 -153 -123 -284 -226 -469 -393 -755 -678 -229 -229 -317 -322 -465
-495 -33 -38 -62 -72 -65 -75 -5 -5 -130 -156 -157 -190 -56 -70 -111 -141
-128 -164 -11 -16 -25 -33 -31 -40 -5 -6 -52 -69 -103 -141 -51 -71 -98 -137
-104 -145 -15 -19 -130 -191 -137 -205 -3 -5 -27 -44 -54 -85 -182 -277 -432
-736 -584 -1070 -169 -370 -342 -843 -445 -1215 -44 -159 -58 -213 -56 -217 0
-2 -4 -16 -10 -31 -6 -15 -13 -42 -16 -60 -3 -18 -10 -48 -15 -68 -14 -51 -87
-406 -94 -454 -4 -23 -8 -50 -10 -60 -5 -24 -25 -159 -30 -200 -7 -51 -16
-119 -21 -145 -2 -14 -7 -47 -9 -75 -3 -27 -8 -71 -11 -97 -3 -26 -8 -78 -11
-115 -3 -38 -7 -88 -9 -113 -27 -316 -27 -960 0 -1300 12 -155 18 -218 29
-310 3 -19 8 -60 11 -90 4 -30 8 -66 10 -80 3 -14 7 -45 10 -70 3 -25 10 -70
15 -100 5 -30 12 -73 16 -95 3 -22 9 -58 14 -80 5 -22 12 -62 16 -90 3 -27 8
-53 10 -56 2 -4 13 -51 23 -105 11 -55 30 -139 41 -189 12 -49 23 -97 25 -105
16 -76 110 -405 162 -565 67 -207 191 -540 253 -680 10 -22 32 -74 49 -115 91
-215 266 -563 404 -803 51 -88 100 -174 110 -191 63 -112 343 -532 434 -652
12 -16 57 -76 99 -134 43 -58 80 -107 83 -110 4 -3 44 -52 91 -110 46 -58 89
-110 95 -117 5 -7 15 -18 20 -25 6 -7 44 -51 84 -98 353 -406 806 -842 1196
-1152 55 -44 109 -87 120 -96 92 -77 443 -328 640 -457 124 -82 429 -270 455
-282 8 -4 31 -16 50 -28 19 -12 76 -43 125 -70 50 -26 95 -51 100 -56 15 -11
417 -212 510 -254 486 -223 1061 -435 1500 -554 44 -12 103 -28 130 -36 100
-29 424 -105 595 -139 256 -51 377 -72 575 -100 17 -3 53 -8 80 -12 28 -4 53
-7 57 -6 4 1 31 -3 60 -8 29 -5 82 -12 118 -15 36 -3 79 -7 95 -9 28 -4 53 -6
230 -22 240 -21 466 -29 850 -29 417 0 619 9 955 41 30 3 71 7 90 9 19 2 62 6
95 10 33 3 79 8 103 10 24 3 47 7 50 9 4 2 39 7 77 11 39 3 81 8 95 10 14 2
84 14 155 25 72 12 144 24 160 27 24 4 376 74 495 99 14 3 119 30 235 60 115
30 220 56 232 59 30 7 384 114 403 122 8 3 17 7 20 7 67 17 605 214 695 256
11 5 74 32 140 60 214 92 552 252 655 310 8 5 76 41 150 81 149 79 175 94 400
229 368 221 847 560 1135 803 39 33 81 69 95 80 210 174 631 575 825 787 125
137 373 425 417 485 4 6 20 26 36 45 15 19 50 64 77 100 27 36 52 67 55 70 33
29 411 586 491 723 19 33 41 71 50 85 174 286 388 707 524 1032 26 63 56 134
66 157 11 24 19 46 19 49 0 3 6 20 14 37 28 67 39 93 51 132 7 22 32 92 55
155 76 213 217 694 245 838 1 10 8 35 13 57 12 43 49 221 57 270 3 17 10 53
15 80 5 28 12 64 15 80 3 17 7 39 9 50 4 21 12 71 22 139 3 21 7 46 9 55 1 9
6 48 11 86 4 39 8 72 9 75 1 3 5 37 9 75 4 39 9 85 12 104 2 18 7 63 10 100 3
36 7 86 9 111 27 310 27 1049 0 1292 -2 18 -7 73 -10 123 -4 49 -8 105 -11
125 -2 19 -6 51 -8 70 -3 19 -8 60 -11 90 -8 64 -13 105 -20 140 -3 14 -7 45
-10 70 -9 75 -43 266 -84 470 -25 121 -124 521 -140 563 -6 15 -13 42 -16 58
-15 86 -233 702 -318 899 -5 14 -11 27 -12 30 -1 3 -13 31 -28 64 -15 32 -27
60 -27 62 0 19 -237 498 -326 659 -233 422 -507 838 -794 1205 -19 25 -37 47
-40 50 -3 3 -18 23 -35 45 -16 21 -36 46 -45 55 -8 9 -41 47 -72 85 -60 73
-71 86 -171 200 -110 125 -178 197 -377 396 -386 387 -733 682 -1174 999 -125
89 -483 330 -491 330 -2 0 -46 26 -97 58 -124 78 -448 263 -523 298 -33 16
-62 32 -65 35 -9 9 -419 209 -545 264 -16 8 -64 28 -105 45 -41 18 -88 38
-105 45 -66 29 -194 79 -270 107 -222 82 -282 104 -430 153 -230 77 -713 215
-837 239 -13 2 -54 12 -93 21 -38 9 -81 19 -95 22 -14 2 -65 13 -115 23 -49
11 -103 22 -120 25 -16 2 -41 7 -55 10 -14 3 -41 8 -60 11 -19 2 -55 9 -80 14
-47 9 -86 16 -155 25 -22 3 -51 8 -65 10 -14 3 -42 7 -62 10 -21 3 -53 7 -70
9 -86 12 -280 35 -338 41 -36 3 -87 8 -115 11 -74 8 -137 12 -260 19 -60 4
-126 9 -145 11 -41 5 -947 14 -952 9z"/>
</g>
</svg>
